<?xml version="1.0" encoding="UTF-8"?>
<svg width="1144px" height="368px" viewBox="0 0 1144 368" version="1.1" xmlns="http://www.w3.org/2000/svg" xmlns:xlink="http://www.w3.org/1999/xlink">
    <!-- Generator: Sketch 52.6 (67491) - http://www.bohemiancoding.com/sketch -->
    <title>Artboard</title>
    <desc>Created with Sketch.</desc>
    <defs>
        <polygon id="path-1" points="0 360 1143.525 360 1143.525 0.98 0 0.98"></polygon>
        <polygon id="path-3" points="0.0586 0.533413876 177.525 0.533413876 177.525 78.5334139 0.0586 78.5334139"></polygon>
    </defs>
    <g id="Artboard" stroke="none" stroke-width="1" fill="none" fill-rule="evenodd">
        <g id="Group-34" transform="translate(1.000000, 0.000000)">
            <g id="Group-31" transform="translate(0.000000, 0.020000)">
                <path d="M639.7955,208.2303 C639.7955,243.2383 611.4155,271.6183 576.4075,271.6183 C541.3995,271.6183 513.0205,243.2383 513.0205,208.2303 C513.0205,173.2223 541.3995,144.8423 576.4075,144.8423 C611.4155,144.8423 639.7955,173.2223 639.7955,208.2303" id="Fill-1" fill="#FEFEFE"></path>
                <mask id="mask-2" fill="white">
                    <use xlink:href="#path-1"></use>
                </mask>
                <g id="Clip-4"></g>
                <polygon id="Fill-3" fill="#FEFEFE" mask="url(#mask-2)" points="513.02 271.618 639.795 271.618 639.795 208.23 513.02 208.23"></polygon>
                <path d="M723.9449,299.7259 C723.9449,333.0149 750.9299,359.9999 784.2189,359.9999 L784.2189,239.4529 C750.9299,239.4529 723.9449,266.4379 723.9449,299.7259" id="Fill-5" fill="#FEFEFE" mask="url(#mask-2)"></path>
                <path d="M744.2554,154.5779 C767.5514,162.9139 784.2184,185.1829 784.2184,211.3449 C784.2184,244.6329 757.2334,271.6189 723.9444,271.6189 C690.6564,271.6189 663.6704,244.6329 663.6704,211.3449 C663.6704,186.4479 678.7654,165.0779 700.3014,155.8849" id="Fill-6" fill="#FEFEFE" mask="url(#mask-2)"></path>
                <polygon id="Fill-7" fill="#FEFEFE" mask="url(#mask-2)" points="663.67 212.944 784.218 212.944 784.218 148.571 663.67 148.571"></polygon>
                <polygon id="Fill-8" fill="#FEFEFE" mask="url(#mask-2)" points="723.945 299.726 784.219 299.726 784.219 179.179 723.945 179.179"></polygon>
                <path d="M279.5894,123.1487 C279.5894,89.8607 252.6034,62.8747 219.3154,62.8747 L219.3154,183.4227 C252.6034,183.4227 279.5894,156.4377 279.5894,123.1487" id="Fill-9" fill="#FEFEFE" mask="url(#mask-2)"></path>
                <path d="M219.315,208.8997 C219.315,175.6117 246.3,148.6257 279.589,148.6257 C312.877,148.6257 339.863,175.6117 339.863,208.8997 C339.863,242.1887 312.877,269.1737 279.589,269.1737 C246.3,269.1737 219.315,242.1887 219.315,208.8997" id="Fill-10" fill="#FEFEFE" mask="url(#mask-2)"></path>
                <polygon id="Fill-11" fill="#FEFEFE" mask="url(#mask-2)" points="219.315 271.805 339.863 271.805 339.863 211.531 219.315 211.531"></polygon>
                <polygon id="Fill-12" fill="#FEFEFE" mask="url(#mask-2)" points="219.315 243.697 279.589 243.697 279.589 123.149 219.315 123.149"></polygon>
                <path d="M488.8726,208.2303 C488.8726,243.2383 460.4926,271.6183 425.4846,271.6183 C390.4766,271.6183 362.0976,243.2383 362.0976,208.2303 C362.0976,173.2223 390.4766,144.8423 425.4846,144.8423 C460.4926,144.8423 488.8726,173.2223 488.8726,208.2303" id="Fill-13" fill="#FEFEFE" mask="url(#mask-2)"></path>
                <polygon id="Fill-14" fill="#FEFEFE" mask="url(#mask-2)" points="425.485 271.618 488.873 271.618 488.873 208.23 425.485 208.23"></polygon>
                <path d="M934.8697,208.2303 C934.8697,243.2383 906.4907,271.6183 871.4817,271.6183 C836.4737,271.6183 808.0947,243.2383 808.0947,208.2303 C808.0947,173.2223 836.4737,144.8423 871.4817,144.8423 C906.4907,144.8423 934.8697,173.2223 934.8697,208.2303" id="Fill-15" fill="#FEFEFE" mask="url(#mask-2)"></path>
                <polygon id="Fill-16" fill="#FEFEFE" mask="url(#mask-2)" points="871.482 271.618 934.87 271.618 934.87 208.23 871.482 208.23"></polygon>
                <path d="M64.4127,271.6204 L5.6307,271.6204 L5.6307,212.8324 C5.6307,215.0434 5.7517,217.2224 5.9887,219.3684 C6.4877,223.8644 7.4907,228.2024 8.9467,232.3354 C16.9837,255.2154 38.7857,271.6204 64.4127,271.6204" id="Fill-17" fill="#FEFEFE" mask="url(#mask-2)"></path>
                <path d="M64.4127,201.722 L64.4127,271.62 C38.7857,271.62 16.9837,255.215 8.9467,232.335 C7.4907,228.203 6.4877,223.865 5.9887,219.368 C5.7517,217.222 5.6307,215.044 5.6307,212.833 L5.6307,142.939 C31.2577,142.939 53.0587,159.34 61.0967,182.22 C62.5527,186.352 63.5547,190.695 64.0547,195.192 C64.2917,197.337 64.4127,199.515 64.4127,201.722" id="Fill-18" fill="#FEFEFE" mask="url(#mask-2)"></path>
                <path d="M70.0465,93.6741 C70.0465,113.0171 54.3655,128.6971 35.0235,128.6971 C15.6805,128.6971 -0.0005,113.0171 -0.0005,93.6741 C-0.0005,74.3311 15.6805,58.6511 35.0235,58.6511 C54.3655,58.6511 70.0465,74.3311 70.0465,93.6741" id="Fill-19" fill="#FEFEFE" mask="url(#mask-2)"></path>
                <polygon id="Fill-20" fill="#FEFEFE" mask="url(#mask-2)" points="102.957 271.623 141.864 271.623 141.864 211.828 102.957 211.828"></polygon>
                <path d="M141.8638,271.6229 L141.8638,170.7379 C174.0948,170.7379 200.2218,193.3209 200.2218,221.1779 C200.2218,249.0369 174.0948,271.6229 141.8638,271.6229" id="Fill-21" fill="#FEFEFE" mask="url(#mask-2)"></path>
                <polygon id="Fill-22" fill="#FEFEFE" mask="url(#mask-2)" points="141.863 204.637 180.769 204.637 180.769 144.843 141.863 144.843"></polygon>
                <path d="M141.8629,144.8426 L141.8629,245.7276 C109.6319,245.7276 83.5039,223.1446 83.5039,195.2866 C83.5039,167.4286 109.6319,144.8426 141.8629,144.8426" id="Fill-23" fill="#FEFEFE" mask="url(#mask-2)"></path>
                <path d="M1140.8405,54.2151 C1140.8405,83.6161 1117.0055,107.4501 1087.6055,107.4501 C1058.2035,107.4501 1034.3695,83.6161 1034.3695,54.2151 C1034.3695,24.8141 1058.2035,0.9801 1087.6055,0.9801 C1117.0055,0.9801 1140.8405,24.8141 1140.8405,54.2151" id="Fill-24" fill="#FEFEFE" mask="url(#mask-2)"></path>
                <polygon id="Fill-25" fill="#FEFEFE" mask="url(#mask-2)" points="1105.35 89.705 1140.84 89.705 1140.84 54.215 1105.35 54.215"></polygon>
                <path d="M1140.8405,89.7054 C1140.8405,119.1064 1117.0055,142.9404 1087.6055,142.9404 L1087.6055,36.4704 C1117.0055,36.4704 1140.8405,60.3044 1140.8405,89.7054" id="Fill-26" fill="#FEFEFE" mask="url(#mask-2)"></path>
                <path d="M965.9283,142.9446 L1019.1633,142.9446 L1019.1633,89.7056 C1019.1633,91.7076 1019.0543,93.6806 1018.8383,95.6236 C1018.3863,99.6956 1017.4783,103.6246 1016.1603,107.3676 C1008.8823,128.0876 989.1373,142.9446 965.9283,142.9446" id="Fill-27" fill="#FEFEFE" mask="url(#mask-2)"></path>
                <path d="M965.9283,54.2147 L965.9283,142.9447 C989.1373,142.9447 1008.8823,128.0877 1016.1603,107.3677 C1017.4783,103.6247 1018.3863,99.6957 1018.8383,95.6237 C1019.0543,93.6807 1019.1633,91.7077 1019.1633,89.7057 L1019.1633,0.9797 C995.9553,0.9797 976.2103,15.8327 968.9323,36.5527 C967.6143,40.2957 966.7053,44.2287 966.2533,48.3007 C966.0383,50.2437 965.9283,52.2167 965.9283,54.2147" id="Fill-28" fill="#FEFEFE" mask="url(#mask-2)"></path>
                <path d="M965.9283,142.9446 L1019.1633,142.9446 L1019.1633,89.7056 C1019.1633,91.7076 1019.0543,93.6806 1018.8383,95.6236 C1018.3863,99.6956 1017.4783,103.6246 1016.1603,107.3676 C1008.8823,128.0876 989.1373,142.9446 965.9283,142.9446" id="Fill-29" fill="#FEFEFE" mask="url(#mask-2)"></path>
                <path d="M965.9283,54.2147 L965.9283,142.9447 C989.1373,142.9447 1008.8823,128.0877 1016.1603,107.3677 C1017.4783,103.6247 1018.3863,99.6957 1018.8383,95.6237 C1019.0543,93.6807 1019.1633,91.7077 1019.1633,89.7057 L1019.1633,0.9797 C995.9553,0.9797 976.2103,15.8327 968.9323,36.5527 C967.6143,40.2957 966.7053,44.2287 966.2533,48.3007 C966.0383,50.2437 965.9283,52.2167 965.9283,54.2147" id="Fill-30" fill="#FEFEFE" mask="url(#mask-2)"></path>
            </g>
            <text id="annual" font-family="AvenirNext-DemiBold, Avenir Next" font-size="56.6277" font-weight="500" fill="#FEFEFE">
                <tspan x="966.0586" y="188.945014">annual</tspan>
            </text>
            <g id="Group-33" transform="translate(966.000000, 189.020000)">
                <mask id="mask-4" fill="white">
                    <use xlink:href="#path-3"></use>
                </mask>
                <g id="Clip-32"></g>
                <text id="design" mask="url(#mask-4)" font-family="AvenirNext-DemiBold, Avenir Next" font-size="56.6277" font-weight="500" fill="#FEFEFE">
                    <tspan x="0.0586" y="57.5334139">design</tspan>
                </text>
            </g>
            <text id="show" font-family="AvenirNext-DemiBold, Avenir Next" font-size="56.6277" font-weight="500" fill="#FEFEFE">
                <tspan x="966.0586" y="304.161814">show</tspan>
            </text>
        </g>
    </g>
</svg>